<svg width="252" height="56" viewBox="0 0 252 56" fill="none" xmlns="http://www.w3.org/2000/svg">
<rect x="1" y="1" width="250" height="54" stroke="url(#paint0_linear_12_36)" stroke-width="2"/>
<path d="M27.211 34.23C25.8157 34.23 24.589 33.9233 23.531 33.31C22.4883 32.6967 21.6757 31.8073 21.093 30.642C20.5103 29.4767 20.219 28.0737 20.219 26.433C20.219 24.8077 20.5257 23.4123 21.139 22.247C21.7523 21.0663 22.6187 20.1617 23.738 19.533C24.8727 18.9043 26.1837 18.59 27.671 18.59C29.3117 18.59 30.638 18.8967 31.65 19.51C32.662 20.108 33.467 21.0433 34.065 22.316L31.121 23.581C30.8757 22.7683 30.454 22.1703 29.856 21.787C29.2733 21.3883 28.5527 21.189 27.694 21.189C26.8353 21.189 26.0917 21.396 25.463 21.81C24.8343 22.2087 24.3513 22.799 24.014 23.581C23.6767 24.3477 23.508 25.2907 23.508 26.41C23.508 27.56 23.669 28.5337 23.991 29.331C24.313 30.113 24.7883 30.7033 25.417 31.102C26.061 31.4853 26.8507 31.677 27.786 31.677C28.292 31.677 28.7597 31.6157 29.189 31.493C29.6337 31.3703 30.017 31.1863 30.339 30.941C30.661 30.6957 30.914 30.3813 31.098 29.998C31.282 29.6147 31.374 29.17 31.374 28.664V28.319H27.395V25.996H34.111V34H31.88L31.65 30.688L32.202 31.079C31.8647 32.091 31.2667 32.873 30.408 33.425C29.5647 33.9617 28.499 34.23 27.211 34.23ZM42.6131 34.23C41.4018 34.23 40.3438 33.9923 39.4391 33.517C38.5498 33.0417 37.8598 32.3593 37.3691 31.47C36.8784 30.5807 36.6331 29.5073 36.6331 28.25C36.6331 26.9927 36.8784 25.9193 37.3691 25.03C37.8598 24.1407 38.5421 23.4583 39.4161 22.983C40.3054 22.5077 41.3174 22.27 42.4521 22.27C43.6174 22.27 44.6064 22.5077 45.4191 22.983C46.2318 23.443 46.8528 24.0793 47.2821 24.892C47.7114 25.6893 47.9261 26.6017 47.9261 27.629C47.9261 27.9357 47.9184 28.227 47.9031 28.503C47.8878 28.779 47.8648 29.0243 47.8341 29.239H38.6571V27.054H46.4541L44.9361 27.606C44.9361 26.64 44.7138 25.8963 44.2691 25.375C43.8398 24.8537 43.2264 24.593 42.4291 24.593C41.8464 24.593 41.3404 24.731 40.9111 25.007C40.4971 25.283 40.1828 25.697 39.9681 26.249C39.7534 26.7857 39.6461 27.468 39.6461 28.296C39.6461 29.1087 39.7611 29.7833 39.9911 30.32C40.2364 30.8413 40.5738 31.2323 41.0031 31.493C41.4478 31.7537 41.9768 31.884 42.5901 31.884C43.2648 31.884 43.8091 31.7537 44.2231 31.493C44.6371 31.2323 44.9591 30.872 45.1891 30.412L47.6961 31.378C47.4508 31.976 47.0751 32.4897 46.5691 32.919C46.0784 33.3483 45.4881 33.678 44.7981 33.908C44.1234 34.1227 43.3951 34.23 42.6131 34.23ZM50.5964 34V22.5H53.3334L53.5404 24.754C53.8471 23.9567 54.2918 23.3433 54.8744 22.914C55.4724 22.4847 56.2161 22.27 57.1054 22.27C57.3661 22.27 57.6038 22.293 57.8184 22.339C58.0331 22.385 58.2094 22.4463 58.3474 22.523L57.9794 25.168C57.8261 25.1067 57.6344 25.0607 57.4044 25.03C57.1898 24.9993 56.9061 24.984 56.5534 24.984C56.0934 24.984 55.6488 25.099 55.2194 25.329C54.7901 25.5437 54.4374 25.881 54.1614 26.341C53.8854 26.7857 53.7474 27.353 53.7474 28.043V34H50.5964ZM66.6524 26.663C66.6524 26.0037 66.4607 25.49 66.0774 25.122C65.7094 24.754 65.2187 24.57 64.6054 24.57C64.0381 24.57 63.5397 24.7157 63.1104 25.007C62.6811 25.2983 62.3667 25.7813 62.1674 26.456L59.4764 25.628C59.7371 24.616 60.3044 23.8033 61.1784 23.19C62.0677 22.5767 63.2561 22.27 64.7434 22.27C65.7554 22.27 66.6371 22.431 67.3884 22.753C68.1397 23.0597 68.7224 23.5273 69.1364 24.156C69.5657 24.7847 69.7804 25.5743 69.7804 26.525V31.194C69.7804 31.7767 70.0564 32.068 70.6084 32.068C70.8691 32.068 71.1144 32.0297 71.3444 31.953L71.1604 33.908C70.7617 34.1073 70.2634 34.207 69.6654 34.207C69.1287 34.207 68.6457 34.115 68.2164 33.931C67.7871 33.747 67.4497 33.471 67.2044 33.103C66.9591 32.7197 66.8364 32.2443 66.8364 31.677V31.585L67.3884 31.493C67.2964 32.0757 67.0434 32.574 66.6294 32.988C66.2154 33.3867 65.7094 33.6933 65.1114 33.908C64.5287 34.1227 63.9231 34.23 63.2944 34.23C62.5124 34.23 61.8377 34.115 61.2704 33.885C60.7031 33.6397 60.2661 33.287 59.9594 32.827C59.6527 32.367 59.4994 31.7997 59.4994 31.125C59.4994 30.2663 59.7754 29.5687 60.3274 29.032C60.8794 28.48 61.6691 28.1043 62.6964 27.905L67.0204 27.031L66.9974 28.986L64.2374 29.538C63.7161 29.6453 63.3174 29.791 63.0414 29.975C62.7807 30.1437 62.6504 30.4273 62.6504 30.826C62.6504 31.2093 62.7884 31.5007 63.0644 31.7C63.3557 31.8993 63.7007 31.999 64.0994 31.999C64.4214 31.999 64.7357 31.9607 65.0424 31.884C65.3491 31.8073 65.6251 31.6847 65.8704 31.516C66.1157 31.3473 66.3074 31.1173 66.4454 30.826C66.5834 30.5347 66.6524 30.182 66.6524 29.768V26.663ZM76.4094 17.463V30.458C76.4094 30.9947 76.5014 31.3703 76.6854 31.585C76.8694 31.7997 77.1761 31.907 77.6054 31.907C77.8661 31.907 78.0808 31.8917 78.2494 31.861C78.4181 31.815 78.6328 31.7537 78.8934 31.677L78.6174 33.747C78.3568 33.9003 78.0271 34.0153 77.6284 34.092C77.2451 34.184 76.8618 34.23 76.4784 34.23C75.3591 34.23 74.5388 33.9617 74.0174 33.425C73.5114 32.873 73.2584 31.999 73.2584 30.803V17.463H76.4094ZM84.9962 34.23C84.0455 34.23 83.1945 33.9923 82.4432 33.517C81.7072 33.0417 81.1245 32.3593 80.6952 31.47C80.2812 30.5807 80.0742 29.515 80.0742 28.273C80.0742 27.0003 80.2965 25.9193 80.7412 25.03C81.1858 24.1253 81.7838 23.443 82.5352 22.983C83.3018 22.5077 84.1605 22.27 85.1112 22.27C86.1232 22.27 86.9588 22.5613 87.6182 23.144C88.2775 23.7267 88.7068 24.478 88.9062 25.398L88.6072 25.766V17.463H91.7582V34H88.9292L88.7222 30.504L89.1132 30.688C89.0058 31.4087 88.7605 32.0373 88.3772 32.574C87.9938 33.0953 87.5108 33.5017 86.9282 33.793C86.3455 34.0843 85.7015 34.23 84.9962 34.23ZM85.9162 31.815C86.4682 31.815 86.9435 31.677 87.3422 31.401C87.7408 31.1097 88.0475 30.688 88.2622 30.136C88.4922 29.584 88.6072 28.9247 88.6072 28.158C88.6072 27.422 88.4998 26.801 88.2852 26.295C88.0705 25.7737 87.7638 25.375 87.3652 25.099C86.9665 24.823 86.4988 24.685 85.9622 24.685C85.1035 24.685 84.4288 24.9917 83.9382 25.605C83.4628 26.203 83.2252 27.0847 83.2252 28.25C83.2252 29.4153 83.4628 30.3047 83.9382 30.918C84.4135 31.516 85.0728 31.815 85.9162 31.815ZM118.935 18.82V34H116.06V26.088L116.221 21.649H116.175L111.966 34H109.367L105.181 21.649H105.135L105.296 26.088V34H102.421V18.82H107.021L109.758 27.1L110.724 30.527H110.77L111.759 27.123L114.473 18.82H118.935ZM126.451 34.23C125.684 34.23 124.994 34.092 124.381 33.816C123.768 33.54 123.277 33.103 122.909 32.505C122.556 31.8917 122.38 31.102 122.38 30.136V22.5H125.531V29.377C125.531 30.2663 125.715 30.8873 126.083 31.24C126.451 31.5773 126.98 31.746 127.67 31.746C127.992 31.746 128.306 31.6923 128.613 31.585C128.92 31.4623 129.188 31.2783 129.418 31.033C129.663 30.7877 129.855 30.4733 129.993 30.09C130.131 29.6913 130.2 29.2237 130.2 28.687V22.5H133.351V34H130.545L130.43 31.999C130.047 32.7657 129.518 33.333 128.843 33.701C128.184 34.0537 127.386 34.23 126.451 34.23ZM144.211 22.5H147.477L143.107 34H139.473L135.103 22.5H138.461L141.313 31.585L144.211 22.5ZM154.424 34.23C153.212 34.23 152.154 33.9923 151.25 33.517C150.36 33.0417 149.67 32.3593 149.18 31.47C148.689 30.5807 148.444 29.5073 148.444 28.25C148.444 26.9927 148.689 25.9193 149.18 25.03C149.67 24.1407 150.353 23.4583 151.227 22.983C152.116 22.5077 153.128 22.27 154.263 22.27C155.428 22.27 156.417 22.5077 157.23 22.983C158.042 23.443 158.663 24.0793 159.093 24.892C159.522 25.6893 159.737 26.6017 159.737 27.629C159.737 27.9357 159.729 28.227 159.714 28.503C159.698 28.779 159.675 29.0243 159.645 29.239H150.468V27.054H158.265L156.747 27.606C156.747 26.64 156.524 25.8963 156.08 25.375C155.65 24.8537 155.037 24.593 154.24 24.593C153.657 24.593 153.151 24.731 152.722 25.007C152.308 25.283 151.993 25.697 151.779 26.249C151.564 26.7857 151.457 27.468 151.457 28.296C151.457 29.1087 151.572 29.7833 151.802 30.32C152.047 30.8413 152.384 31.2323 152.814 31.493C153.258 31.7537 153.787 31.884 154.401 31.884C155.075 31.884 155.62 31.7537 156.034 31.493C156.448 31.2323 156.77 30.872 157 30.412L159.507 31.378C159.261 31.976 158.886 32.4897 158.38 32.919C157.889 33.3483 157.299 33.678 156.609 33.908C155.934 34.1227 155.206 34.23 154.424 34.23ZM162.407 34V22.5H165.236L165.42 25.95L165.029 25.582C165.213 24.8307 165.504 24.2097 165.903 23.719C166.302 23.2283 166.785 22.868 167.352 22.638C167.935 22.3927 168.571 22.27 169.261 22.27C170.058 22.27 170.764 22.4233 171.377 22.73C172.006 23.0367 172.496 23.5043 172.849 24.133C173.217 24.7463 173.401 25.5207 173.401 26.456V34H170.25V27.353C170.25 26.3717 170.058 25.697 169.675 25.329C169.292 24.9457 168.793 24.754 168.18 24.754C167.751 24.754 167.329 24.8613 166.915 25.076C166.516 25.2753 166.187 25.605 165.926 26.065C165.681 26.525 165.558 27.1383 165.558 27.905V34H162.407ZM187.25 19.763L187.618 22.017C187.557 22.017 187.488 22.017 187.411 22.017C187.35 22.0017 187.281 21.994 187.204 21.994C186.499 21.994 185.97 22.155 185.617 22.477C185.265 22.7837 185.088 23.213 185.088 23.765L183.8 23.236C183.8 22.6227 183.923 22.0553 184.168 21.534C184.414 20.9973 184.774 20.568 185.249 20.246C185.74 19.924 186.323 19.763 186.997 19.763C187.028 19.763 187.066 19.763 187.112 19.763C187.158 19.763 187.204 19.763 187.25 19.763ZM183.478 31.838C184.72 31.838 185.679 32.1063 186.353 32.643C187.028 33.1797 187.365 33.931 187.365 34.897C187.365 35.771 187.112 36.507 186.606 37.105C186.1 37.7183 185.387 38.1783 184.467 38.485C183.563 38.7917 182.512 38.945 181.316 38.945C179.338 38.945 177.889 38.669 176.969 38.117C176.065 37.565 175.612 36.8443 175.612 35.955C175.612 35.3263 175.85 34.7973 176.325 34.368C176.816 33.9387 177.621 33.701 178.74 33.655L178.625 34.023C177.828 33.885 177.215 33.6243 176.785 33.241C176.371 32.8423 176.164 32.298 176.164 31.608C176.164 30.9027 176.433 30.3277 176.969 29.883C177.521 29.423 178.265 29.1547 179.2 29.078L180.58 29.722H180.258C179.599 29.768 179.131 29.906 178.855 30.136C178.595 30.3507 178.464 30.596 178.464 30.872C178.464 31.194 178.587 31.4393 178.832 31.608C179.093 31.7613 179.461 31.838 179.936 31.838H183.478ZM181.339 36.783C182.137 36.783 182.788 36.714 183.294 36.576C183.816 36.438 184.199 36.2617 184.444 36.047C184.705 35.8323 184.835 35.5947 184.835 35.334C184.835 35.0427 184.72 34.805 184.49 34.621C184.26 34.4523 183.846 34.368 183.248 34.368H179.361C178.993 34.368 178.687 34.46 178.441 34.644C178.211 34.828 178.096 35.081 178.096 35.403C178.096 35.8323 178.38 36.1697 178.947 36.415C179.53 36.6603 180.327 36.783 181.339 36.783ZM181.362 22.27C182.436 22.27 183.363 22.431 184.145 22.753C184.943 23.0597 185.548 23.5043 185.962 24.087C186.392 24.6697 186.606 25.3673 186.606 26.18C186.606 26.9773 186.392 27.6673 185.962 28.25C185.548 28.8327 184.943 29.285 184.145 29.607C183.363 29.9137 182.436 30.067 181.362 30.067C179.66 30.067 178.357 29.722 177.452 29.032C176.563 28.3267 176.118 27.376 176.118 26.18C176.118 25.3673 176.325 24.6697 176.739 24.087C177.169 23.5043 177.774 23.0597 178.556 22.753C179.338 22.431 180.274 22.27 181.362 22.27ZM181.362 24.248C180.749 24.248 180.243 24.4167 179.844 24.754C179.446 25.0913 179.246 25.559 179.246 26.157C179.246 26.755 179.446 27.2303 179.844 27.583C180.243 27.9203 180.749 28.089 181.362 28.089C181.976 28.089 182.474 27.9203 182.857 27.583C183.256 27.2303 183.455 26.755 183.455 26.157C183.455 25.559 183.256 25.0913 182.857 24.754C182.474 24.4167 181.976 24.248 181.362 24.248ZM194.606 34.23C193.395 34.23 192.337 33.9923 191.432 33.517C190.543 33.0417 189.853 32.3593 189.362 31.47C188.872 30.5807 188.626 29.5073 188.626 28.25C188.626 26.9927 188.872 25.9193 189.362 25.03C189.853 24.1407 190.535 23.4583 191.409 22.983C192.299 22.5077 193.311 22.27 194.445 22.27C195.611 22.27 196.6 22.5077 197.412 22.983C198.225 23.443 198.846 24.0793 199.275 24.892C199.705 25.6893 199.919 26.6017 199.919 27.629C199.919 27.9357 199.912 28.227 199.896 28.503C199.881 28.779 199.858 29.0243 199.827 29.239H190.65V27.054H198.447L196.929 27.606C196.929 26.64 196.707 25.8963 196.262 25.375C195.833 24.8537 195.22 24.593 194.422 24.593C193.84 24.593 193.334 24.731 192.904 25.007C192.49 25.283 192.176 25.697 191.961 26.249C191.747 26.7857 191.639 27.468 191.639 28.296C191.639 29.1087 191.754 29.7833 191.984 30.32C192.23 30.8413 192.567 31.2323 192.996 31.493C193.441 31.7537 193.97 31.884 194.583 31.884C195.258 31.884 195.802 31.7537 196.216 31.493C196.63 31.2323 196.952 30.872 197.182 30.412L199.689 31.378C199.444 31.976 199.068 32.4897 198.562 32.919C198.072 33.3483 197.481 33.678 196.791 33.908C196.117 34.1227 195.388 34.23 194.606 34.23ZM204.177 20.844C203.517 20.844 203.027 20.706 202.705 20.43C202.383 20.1387 202.222 19.717 202.222 19.165C202.222 18.5977 202.383 18.176 202.705 17.9C203.027 17.6087 203.517 17.463 204.177 17.463C204.836 17.463 205.327 17.6087 205.649 17.9C205.971 18.176 206.132 18.5977 206.132 19.165C206.132 19.717 205.971 20.1387 205.649 20.43C205.327 20.706 204.836 20.844 204.177 20.844ZM205.741 22.5V34H202.59V22.5H205.741ZM219.822 35.771V38.37H207.425V35.771H219.822Z" fill="#23C56F"/>
<defs>
<linearGradient id="paint0_linear_12_36" x1="-1.17497e-06" y1="28.4308" x2="252" y2="28.4308" gradientUnits="userSpaceOnUse">
<stop stop-color="#00DC82"/>
<stop offset="1" stop-color="#23C56F"/>
</linearGradient>
</defs>
</svg>
